<svg width="20" height="20" viewBox="0 0 20 20" fill="none" xmlns="http://www.w3.org/2000/svg">
<path d="M3.90591 5.17767L5.66675 15.8135C5.74729 16.3004 5.99807 16.7429 6.37442 17.0622C6.75076 17.3814 7.22822 17.5567 7.72175 17.5568H10.5117M16.0934 5.17767L14.3334 15.8135C14.2529 16.3004 14.0021 16.7429 13.6257 17.0622C13.2494 17.3814 12.7719 17.5567 12.2784 17.5568H9.48841M8.35175 9.2635V13.471M11.6484 9.2635V13.471M2.29175 5.17767H17.7084M12.3142 5.17767V3.69434C12.3142 3.36282 12.1826 3.04487 11.9481 2.81045C11.7137 2.57603 11.3958 2.44434 11.0642 2.44434H8.93591C8.60439 2.44434 8.28645 2.57603 8.05203 2.81045C7.81761 3.04487 7.68591 3.36282 7.68591 3.69434V5.17767H12.3142Z" stroke="#394853" stroke-width="1.5" stroke-linecap="round" stroke-linejoin="round"/>
</svg>
