<svg width="24" height="25" viewBox="0 0 24 25" fill="none" xmlns="http://www.w3.org/2000/svg">
<path opacity="0.4" d="M15.48 3.24414H7.52C4.07 3.24414 2 5.30414 2 8.76414V16.7141C2 20.1841 4.07 22.2441 7.52 22.2441H15.47C18.93 22.2441 20.99 20.1841 20.99 16.7241V8.76414C21 5.30414 18.93 3.24414 15.48 3.24414Z" fill="#AA468E"/>
<path d="M21.02 3.22442C19.23 1.42442 17.48 1.38442 15.64 3.22442L14.51 4.34442C14.41 4.44442 14.38 4.58442 14.42 4.71442C15.12 7.16442 17.08 9.12442 19.53 9.82442C19.56 9.83442 19.61 9.83442 19.64 9.83442C19.74 9.83442 19.84 9.79442 19.91 9.72442L21.02 8.60442C21.93 7.69442 22.38 6.82442 22.38 5.93442C22.38 5.03442 21.93 4.14442 21.02 3.22442Z" fill="#AA468E"/>
<path d="M17.8601 10.664C17.5901 10.534 17.3301 10.404 17.0901 10.254C16.8901 10.134 16.6901 10.004 16.5001 9.86398C16.3401 9.76398 16.1601 9.61398 15.9801 9.46398C15.9601 9.45398 15.9001 9.40398 15.8201 9.32398C15.5101 9.07398 15.1801 8.73398 14.8701 8.36398C14.8501 8.34398 14.7901 8.28398 14.7401 8.19398C14.6401 8.08398 14.4901 7.89398 14.3601 7.68398C14.2501 7.54398 14.1201 7.34398 14.0001 7.13398C13.8501 6.88398 13.7201 6.63398 13.6001 6.37398C13.4701 6.09398 13.3701 5.83398 13.2801 5.58398L7.9001 10.964C7.5501 11.314 7.2101 11.974 7.1401 12.464L6.7101 15.444C6.6201 16.074 6.7901 16.664 7.1801 17.054C7.5101 17.384 7.9601 17.554 8.4601 17.554C8.5701 17.554 8.6801 17.544 8.7901 17.534L11.7601 17.114C12.2501 17.044 12.9101 16.714 13.2601 16.354L18.6401 10.974C18.3901 10.894 18.1401 10.784 17.8601 10.664Z" fill="#AA468E"/>
</svg>
