<svg width="20" height="20" viewBox="0 0 20 20" fill="none" xmlns="http://www.w3.org/2000/svg">
<path fill-rule="evenodd" clip-rule="evenodd" d="M5.00008 5.83317C5.00008 4.7281 5.43907 3.66829 6.22047 2.88689C7.00187 2.10549 8.06168 1.6665 9.16675 1.6665C10.2718 1.6665 11.3316 2.10549 12.113 2.88689C12.8944 3.66829 13.3334 4.7281 13.3334 5.83317C13.3334 6.93824 12.8944 7.99805 12.113 8.77945C11.3316 9.56085 10.2718 9.99984 9.16675 9.99984C8.06168 9.99984 7.00187 9.56085 6.22047 8.77945C5.43907 7.99805 5.00008 6.93824 5.00008 5.83317ZM9.16675 3.33317C8.83844 3.33317 8.51335 3.39784 8.21004 3.52347C7.90673 3.64911 7.63113 3.83326 7.39898 4.0654C7.16683 4.29755 6.98269 4.57315 6.85705 4.87646C6.73141 5.17978 6.66675 5.50487 6.66675 5.83317C6.66675 6.16148 6.73141 6.48657 6.85705 6.78988C6.98269 7.09319 7.16683 7.36879 7.39898 7.60094C7.63113 7.83308 7.90673 8.01723 8.21004 8.14287C8.51335 8.26851 8.83844 8.33317 9.16675 8.33317C9.82979 8.33317 10.4657 8.06978 10.9345 7.60094C11.4034 7.1321 11.6667 6.49621 11.6667 5.83317C11.6667 5.17013 11.4034 4.53424 10.9345 4.0654C10.4657 3.59656 9.82979 3.33317 9.16675 3.33317ZM3.67758 14.6673C3.40841 15.009 3.33341 15.2673 3.33341 15.4165C3.33341 15.5148 3.36258 15.6098 3.50425 15.7365C3.66841 15.8832 3.96258 16.0448 4.42925 16.189C5.36258 16.4773 6.72591 16.6232 8.35091 16.6582C8.46035 16.6605 8.56826 16.6843 8.66849 16.7283C8.76871 16.7723 8.85929 16.8356 8.93505 16.9146C9.0108 16.9936 9.07026 17.0868 9.11001 17.1888C9.14977 17.2908 9.16905 17.3996 9.16675 17.509C9.16445 17.6184 9.14062 17.7263 9.09662 17.8266C9.05262 17.9268 8.9893 18.0174 8.9103 18.0931C8.83129 18.1689 8.73813 18.2283 8.63615 18.2681C8.53417 18.3079 8.42535 18.3271 8.31592 18.3248C6.65175 18.289 5.09925 18.1407 3.93758 17.7815C3.35758 17.6015 2.80925 17.3507 2.39425 16.9798C1.95591 16.5882 1.66675 16.0615 1.66675 15.4165C1.66675 14.7607 1.96508 14.1473 2.37008 13.634C2.78175 13.1132 3.35091 12.634 4.01841 12.2257C5.35425 11.4123 7.17092 10.8332 9.16675 10.8332C9.53953 10.8332 9.90508 10.8526 10.2634 10.8915C10.4832 10.9148 10.6847 11.0245 10.8237 11.1964C10.9626 11.3683 11.0276 11.5884 11.0042 11.8082C10.9809 12.028 10.8713 12.2295 10.6993 12.3684C10.5274 12.5074 10.3074 12.5723 10.0876 12.549C9.78703 12.5162 9.48008 12.4998 9.16675 12.4998C7.48092 12.4998 5.96425 12.9915 4.88675 13.649C4.34758 13.9773 3.94008 14.334 3.67758 14.6673ZM17.6776 11.6948C17.4841 11.5013 17.2544 11.3478 17.0016 11.2431C16.7488 11.1384 16.4779 11.0844 16.2042 11.0844C15.9306 11.0844 15.6597 11.1384 15.4069 11.2431C15.1541 11.3478 14.9244 11.5013 14.7309 11.6948L11.8826 14.5423C11.6913 14.7337 11.5674 14.982 11.5292 15.2498L11.2542 17.1732C11.2357 17.3015 11.2473 17.4323 11.2882 17.5554C11.329 17.6784 11.3981 17.7902 11.4897 17.8819C11.5814 17.9735 11.6932 18.0426 11.8162 18.0834C11.9392 18.1243 12.0701 18.1359 12.1984 18.1173L14.1217 17.8423C14.3896 17.8042 14.6379 17.6802 14.8292 17.489L17.6767 14.6407C18.0673 14.25 18.2867 13.7202 18.2867 13.1678C18.2867 12.6153 18.0681 12.0855 17.6776 11.6948ZM15.9092 12.8732C15.9878 12.7973 16.0931 12.7553 16.2023 12.7562C16.3116 12.7572 16.4161 12.801 16.4933 12.8782C16.5706 12.9555 16.6144 13.06 16.6154 13.1693C16.6163 13.2785 16.5743 13.3838 16.4984 13.4623L13.7484 16.2123L13.0609 16.3107L13.1592 15.6232L15.9092 12.8732Z" fill="#6B767E"/>
</svg>
