<svg width="20" height="21" viewBox="0 0 20 21" fill="none" xmlns="http://www.w3.org/2000/svg">
<path d="M19.0416 5.31928C18.9534 4.98925 18.741 4.77717 18.4234 4.66951C17.8209 4.46538 17.2167 4.26613 16.6132 4.06526C14.5195 3.36834 12.4257 2.67214 10.3324 1.97413C10.084 1.89122 9.83706 1.8858 9.58868 1.96528C9.3085 2.05506 9.02905 2.14683 8.74977 2.23968C6.76866 2.89921 4.78737 3.55801 2.80698 4.21953C2.31761 4.38301 1.82934 4.5501 1.34413 4.72515C1.06774 4.82504 0.902998 5.03242 0.856031 5.32308C0.836341 5.44393 0.832186 5.56857 0.832006 5.69159C0.830741 7.89652 0.831102 10.1014 0.831102 12.3064C0.831102 12.3485 0.831102 12.3907 0.83309 12.4326C0.85278 12.7871 1.09213 13.094 1.43788 13.2091C1.77424 13.3209 2.15142 13.2137 2.37813 12.9448C2.54468 12.7471 2.59472 12.5141 2.59436 12.2643C2.59346 11.6927 2.59129 11.1214 2.59111 10.5498C2.59057 9.31348 2.59093 8.07716 2.59111 6.84084C2.59111 6.80977 2.59454 6.77852 2.59707 6.73679C3.40039 7.0045 4.19052 7.26806 4.99005 7.53451C4.29529 8.801 4.08358 10.1307 4.39447 11.5347C4.70554 12.9392 5.44545 14.0669 6.61855 14.9239C6.58639 14.9389 6.57302 14.9454 6.5593 14.9514C5.17485 15.5605 4.03138 16.4704 3.13936 17.6937C2.99448 17.8926 2.83769 18.0857 2.77536 18.3314C2.68884 18.6726 2.76326 18.9723 3.0326 19.2055C3.28749 19.4262 3.58157 19.499 3.90547 19.3771C4.13109 19.292 4.2868 19.1202 4.42012 18.9269C4.75304 18.4446 5.1286 17.9983 5.58075 17.6247C7.22894 16.2619 9.10419 15.7334 11.2177 16.1304C12.805 16.4287 14.1022 17.222 15.1209 18.4721C15.2992 18.691 15.4515 18.932 15.6379 19.1432C16.0288 19.5859 16.7512 19.5043 17.0351 18.9907C17.2254 18.6466 17.1719 18.3117 16.9596 17.9959C16.0859 16.6953 14.9437 15.7063 13.5227 15.042C13.4427 15.0046 13.3625 14.9676 13.2693 14.9244C14.4391 14.0671 15.176 12.9422 15.4896 11.5408C15.8044 10.134 15.5889 8.80407 14.9034 7.54029C14.9292 7.53072 14.9428 7.52512 14.9567 7.5206C15.6057 7.30311 16.2551 7.08615 16.904 6.86794C17.4163 6.69578 17.9288 6.52345 18.44 6.34786C18.6996 6.25881 18.897 6.0946 18.9993 5.83484C19.03 5.7568 19.0484 5.6849 19.1644 5.72194C19.12 5.57724 19.0762 5.44953 19.0416 5.31928ZM12.7118 13.0985C12.0415 13.7783 11.224 14.1504 10.2697 14.2208C9.13147 14.305 8.13215 13.967 7.28205 13.2134C6.79341 12.7804 6.48053 12.2204 6.24931 11.6154C6.08818 11.1934 6.00382 10.7556 6.00653 10.2857C6.004 9.59763 6.22059 8.95563 6.56652 8.35102C6.61385 8.26864 6.64944 8.1487 6.72043 8.11961C6.78654 8.09252 6.8933 8.16224 6.98128 8.19187C7.82344 8.47476 8.66523 8.75801 9.50721 9.04125C9.79895 9.13934 10.0907 9.14097 10.3831 9.04306C11.2824 8.74175 12.182 8.44188 13.0805 8.13804C13.1585 8.11166 13.1988 8.12052 13.2471 8.19313C13.617 8.74952 13.8271 9.36099 13.856 10.0263C13.9075 11.2086 13.5505 12.2477 12.7118 13.0985ZM14.9695 5.65871C13.3493 6.19721 11.7286 6.7348 10.1088 7.27456C10.0009 7.31051 9.90065 7.30997 9.79263 7.27402C8.06405 6.69849 6.33494 6.12495 4.60582 5.55087C4.578 5.54165 4.55109 5.53027 4.50683 5.51329C4.55163 5.49704 4.58017 5.48584 4.60907 5.47608C6.34866 4.89694 8.08826 4.31689 9.8293 3.74155C9.90029 3.71806 9.99278 3.71806 10.0638 3.74173C11.8104 4.3196 13.5554 4.90218 15.3006 5.48403C15.3221 5.49126 15.3431 5.49975 15.3852 5.51564C15.2338 5.56785 15.1021 5.61481 14.9695 5.65871Z" fill="white"/>
</svg>
