<svg width="24" height="25" viewBox="0 0 24 25" fill="none" xmlns="http://www.w3.org/2000/svg">
<path d="M12 22.2441C17.3552 22.2441 21.7272 18.0347 21.9877 12.7441C22.0013 12.4683 21.7761 12.2441 21.5 12.2441H12.5C12.2239 12.2441 12 12.0203 12 11.7441V2.74414C12 2.468 11.7759 2.24284 11.5001 2.25642C6.20948 2.5169 2 6.88893 2 12.2441C2 17.767 6.47715 22.2441 12 22.2441Z" stroke="#6B767E" stroke-width="1.5"/>
<path d="M21.9846 9.74405C21.7367 5.72412 18.52 2.50746 14.5001 2.25952C14.2245 2.24252 14 2.468 14 2.74414V9.74414C14 10.0203 14.2239 10.2441 14.5 10.2441H21.5C21.7761 10.2441 22.0016 10.0197 21.9846 9.74405Z" stroke="#6B767E" stroke-width="1.5"/>
</svg>
