<svg width="20" height="21" viewBox="0 0 20 21" fill="none" xmlns="http://www.w3.org/2000/svg">
<path d="M7.58877 4.78398C8.0871 3.32564 10.1021 3.28148 10.6929 4.65148L10.7429 4.78481L11.4154 6.75148C11.5696 7.20251 11.8186 7.61524 12.1458 7.96183C12.473 8.30842 12.8707 8.58082 13.3121 8.76064L13.4929 8.82814L15.4596 9.49981C16.9179 9.99814 16.9621 12.0131 15.5929 12.604L15.4596 12.654L13.4929 13.3265C13.0417 13.4805 12.6289 13.7295 12.2821 14.0567C11.9354 14.3839 11.6628 14.7816 11.4829 15.2231L11.4154 15.4031L10.7438 17.3706C10.2454 18.829 8.23043 18.8731 7.64043 17.504L7.58877 17.3706L6.9171 15.404C6.76308 14.9528 6.51408 14.5399 6.18688 14.1932C5.85969 13.8464 5.46193 13.5739 5.02043 13.394L4.84043 13.3265L2.87377 12.6548C1.4146 12.1565 1.37043 10.1415 2.74043 9.55148L2.87377 9.49981L4.84043 8.82814C5.29146 8.67402 5.70419 8.42497 6.05079 8.09779C6.39738 7.7706 6.66978 7.37289 6.8496 6.93148L6.9171 6.75148L7.58877 4.78398ZM9.16627 5.32231L8.4946 7.28898C8.25992 7.97673 7.87816 8.60506 7.37588 9.13022C6.8736 9.65538 6.26289 10.0647 5.58627 10.3298L5.37793 10.4056L3.41127 11.0773L5.37793 11.749C6.06568 11.9837 6.69402 12.3654 7.21918 12.8677C7.74434 13.37 8.1537 13.9807 8.41877 14.6573L8.4946 14.8656L9.16627 16.8323L9.83793 14.8656C10.0726 14.1779 10.4544 13.5496 10.9567 13.0244C11.4589 12.4992 12.0696 12.0899 12.7463 11.8248L12.9546 11.7498L14.9213 11.0773L12.9546 10.4056C12.2668 10.171 11.6385 9.7892 11.1134 9.28692C10.5882 8.78465 10.1788 8.17393 9.91377 7.49731L9.83877 7.28898L9.16627 5.32231ZM15.8329 1.91064C15.9888 1.91064 16.1416 1.95438 16.2739 2.03687C16.4062 2.11937 16.5127 2.23731 16.5813 2.37731L16.6213 2.47481L16.9129 3.32981L17.7688 3.62148C17.925 3.67456 18.062 3.77282 18.1623 3.90382C18.2626 4.03482 18.3218 4.19266 18.3323 4.35733C18.3429 4.522 18.3043 4.68609 18.2214 4.8288C18.1386 4.97151 18.0153 5.08643 17.8671 5.15898L17.7688 5.19898L16.9138 5.49064L16.6221 6.34648C16.5689 6.50267 16.4706 6.63956 16.3395 6.7398C16.2085 6.84005 16.0506 6.89914 15.886 6.90958C15.7213 6.92002 15.5572 6.88135 15.4146 6.79846C15.2719 6.71557 15.1571 6.5922 15.0846 6.44398L15.0446 6.34648L14.7529 5.49148L13.8971 5.19981C13.7409 5.14673 13.6039 5.04847 13.5036 4.91747C13.4032 4.78647 13.3441 4.62863 13.3335 4.46396C13.323 4.29929 13.3616 4.1352 13.4444 3.99249C13.5272 3.84977 13.6506 3.73486 13.7988 3.66231L13.8971 3.62231L14.7521 3.33064L15.0438 2.47481C15.1 2.31017 15.2063 2.16724 15.3478 2.06606C15.4893 1.96489 15.659 1.91054 15.8329 1.91064Z" fill="#6B767E"/>
</svg>
