<svg width="21" height="20" viewBox="0 0 21 20" fill="none" xmlns="http://www.w3.org/2000/svg">
<g clip-path="url(#clip0_728_19659)">
<path d="M19.2081 5.0749C19.1199 4.74486 18.9075 4.53279 18.5899 4.42512C17.9874 4.221 17.3832 4.02175 16.7797 3.82087C14.686 3.12395 12.5922 2.42775 10.4989 1.72975C10.2505 1.64683 10.0036 1.64141 9.75518 1.7209C9.47501 1.81068 9.19555 1.90244 8.91628 1.99529C6.93516 2.65482 4.95387 3.31363 2.97348 3.97514C2.48412 4.13862 1.99584 4.30572 1.51063 4.48076C1.23425 4.58066 1.0695 4.78804 1.02254 5.07869C1.00285 5.19954 0.99869 5.32419 0.99851 5.4472C0.997245 7.65213 0.997606 9.85706 0.997606 12.062C0.997606 12.1041 0.997606 12.1464 0.999593 12.1883C1.01928 12.5427 1.25864 12.8496 1.60439 12.9647C1.94074 13.0765 2.31793 12.9694 2.54463 12.7004C2.71119 12.5028 2.76122 12.2697 2.76086 12.0199C2.75996 11.4483 2.75779 10.877 2.75761 10.3054C2.75707 9.0691 2.75743 7.83278 2.75761 6.59646C2.75761 6.56538 2.76104 6.53413 2.76357 6.4924C3.56689 6.76012 4.35703 7.02368 5.15655 7.29012C4.4618 8.55661 4.25009 9.88633 4.56097 11.2903C4.87204 12.6948 5.61195 13.8225 6.78505 14.6795C6.7529 14.6945 6.73953 14.701 6.7258 14.707C5.34135 15.3161 4.19788 16.226 3.30586 17.4493C3.16099 17.6482 3.00419 17.8413 2.94187 18.087C2.85534 18.4282 2.92976 18.7279 3.1991 18.9611C3.45399 19.1819 3.74808 19.2547 4.07197 19.1327C4.29759 19.0476 4.45331 18.8759 4.58662 18.6826C4.91955 18.2002 5.29511 17.7539 5.74726 17.3803C7.39544 16.0175 9.2707 15.489 11.3842 15.886C12.9715 16.1843 14.2687 16.9777 15.2874 18.2277C15.4657 18.4466 15.618 18.6876 15.8044 18.8988C16.1953 19.3415 16.9177 19.2599 17.2017 18.7463C17.3919 18.4022 17.3384 18.0673 17.1261 17.7515C16.2524 16.4509 15.1102 15.4619 13.6892 14.7977C13.6092 14.7603 13.529 14.7232 13.4358 14.6801C14.6056 13.8227 15.3425 12.6979 15.6561 11.2964C15.9709 9.88958 15.7554 8.55968 15.0699 7.29591C15.0957 7.28633 15.1093 7.28073 15.1232 7.27622C15.7722 7.05872 16.4216 6.84177 17.0705 6.62355C17.5828 6.4514 18.0953 6.27907 18.6065 6.10348C18.8661 6.01442 19.0635 5.85022 19.1658 5.59045C19.1965 5.51242 19.2149 5.44052 19.3309 5.47755C19.2865 5.33286 19.2427 5.20514 19.2081 5.0749ZM12.8783 12.8541C12.208 13.5339 11.3905 13.906 10.4362 13.9764C9.29798 14.0606 8.29866 13.7226 7.44855 12.969C6.95991 12.536 6.64704 11.976 6.41582 11.371C6.25468 10.9491 6.17032 10.5112 6.17303 10.0413C6.1705 9.35325 6.38709 8.71124 6.73302 8.10663C6.78035 8.02426 6.81594 7.90431 6.88693 7.87523C6.95305 7.84813 7.05981 7.91786 7.14778 7.94748C7.98994 8.23037 8.83174 8.51362 9.67371 8.79687C9.96545 8.89496 10.2572 8.89658 10.5497 8.79868C11.4489 8.49736 12.3485 8.19749 13.247 7.89365C13.3251 7.86728 13.3653 7.87613 13.4136 7.94875C13.7835 8.50513 13.9936 9.11661 14.0225 9.78192C14.074 10.9642 13.717 12.0033 12.8783 12.8541ZM15.136 5.41433C13.5158 5.95282 11.8951 6.49042 10.2753 7.03018C10.1674 7.06613 10.0672 7.06559 9.95913 7.02964C8.23056 6.45411 6.50144 5.88057 4.77232 5.30648C4.74451 5.29727 4.71759 5.28589 4.67333 5.26891C4.71813 5.25265 4.74667 5.24145 4.77558 5.2317C6.51517 4.65255 8.25476 4.07251 9.9958 3.49716C10.0668 3.47368 10.1593 3.47368 10.2303 3.49734C11.9769 4.07522 13.7219 4.65779 15.4671 5.23964C15.4886 5.24687 15.5096 5.25536 15.5517 5.27126C15.4003 5.32346 15.2686 5.37043 15.136 5.41433Z" fill="#6B767E"/>
</g>
<defs>
<clipPath id="clip0_728_19659">
<rect width="20" height="20" fill="white" transform="translate(0.166504)"/>
</clipPath>
</defs>
</svg>
