<svg width="24" height="25" viewBox="0 0 24 25" fill="none" xmlns="http://www.w3.org/2000/svg">
<path d="M10 21.2441H5C3.89543 21.2441 3 20.3487 3 19.2441V12.5411C3 12.0294 3.19615 11.5371 3.54809 11.1656L10.5481 3.77671C11.3369 2.94403 12.663 2.94403 13.4519 3.77671L20.4519 11.1656C20.8038 11.5371 21 12.0294 21 12.5411V19.2441C21 20.3487 20.1046 21.2441 19 21.2441H14M10 21.2441V15.7441C10 15.468 10.2239 15.2441 10.5 15.2441H13.5C13.7761 15.2441 14 15.468 14 15.7441V21.2441M10 21.2441H14" stroke="#6B767E" stroke-width="1.5"/>
</svg>
