<svg width="24" height="25" viewBox="0 0 24 25" fill="none" xmlns="http://www.w3.org/2000/svg">
<path d="M10 12.2441C12.21 12.2441 14 10.4541 14 8.24414C14 6.03414 12.21 4.24414 10 4.24414C7.79 4.24414 6 6.03414 6 8.24414C6 10.4541 7.79 12.2441 10 12.2441ZM10 6.24414C10.5304 6.24414 11.0391 6.45485 11.4142 6.82993C11.7893 7.205 12 7.71371 12 8.24414C12 8.77457 11.7893 9.28328 11.4142 9.65835C11.0391 10.0334 10.5304 10.2441 10 10.2441C8.89 10.2441 8 9.35414 8 8.24414C8 7.13414 8.9 6.24414 10 6.24414ZM12 20.2441H2V17.2441C2 14.5741 7.33 13.2441 10 13.2441C11 13.2441 12.38 13.4341 13.71 13.8041C13.41 14.3641 13.23 14.9841 13.21 15.6341C12.23 15.3441 11.11 15.1441 10 15.1441C7.03 15.1441 3.9 16.6041 3.9 17.2441V18.3441H12V20.2441ZM20.8 17.2441V15.7441C20.8 14.3441 19.4 13.2441 18 13.2441C16.6 13.2441 15.2 14.3441 15.2 15.7441V17.2441C14.6 17.2441 14 17.8441 14 18.4441V21.9441C14 22.6441 14.6 23.2441 15.2 23.2441H20.7C21.4 23.2441 22 22.6441 22 22.0441V18.5441C22 17.8441 21.4 17.2441 20.8 17.2441ZM19.5 17.2441H16.5V15.7441C16.5 14.9441 17.2 14.4441 18 14.4441C18.8 14.4441 19.5 14.9441 19.5 15.7441V17.2441Z" fill="#061520"/>
</svg>
