<svg width="20" height="21" viewBox="0 0 20 21" fill="none" xmlns="http://www.w3.org/2000/svg">
<g clip-path="url(#clip0_728_23529)">
<path fill-rule="evenodd" clip-rule="evenodd" d="M5.83301 3.16081C5.83301 1.55057 7.13944 0.244141 8.74967 0.244141C10.3599 0.244141 11.6663 1.55057 11.6663 3.16081V3.57747H14.1663C15.5432 3.57747 16.6663 4.70057 16.6663 6.07747V8.57747H17.083C18.6932 8.57747 19.9997 9.8839 19.9997 11.4941C19.9997 13.1044 18.6932 14.4108 17.083 14.4108H16.6663V16.9108C16.6663 18.2877 15.5432 19.4108 14.1663 19.4108H10.1663V17.3275C10.1663 16.546 9.5311 15.9108 8.74967 15.9108C7.96825 15.9108 7.33301 16.546 7.33301 17.3275V19.4108H3.33301C1.9561 19.4108 0.833008 18.2877 0.833008 16.9108V12.9108H2.91634C3.69777 12.9108 4.33301 12.2756 4.33301 11.4941C4.33301 10.7127 3.69777 10.0775 2.91634 10.0775H0.841341V6.07747C0.841341 4.70602 1.95068 3.57747 3.33301 3.57747H5.83301V3.16081ZM8.74967 1.91081C8.05991 1.91081 7.49967 2.47104 7.49967 3.16081V5.24414H3.33301C2.88201 5.24414 2.50801 5.6156 2.50801 6.07747V8.41081H2.91634C4.61824 8.41081 5.99967 9.79224 5.99967 11.4941C5.99967 13.196 4.61825 14.5775 2.91634 14.5775H2.49967V16.9108C2.49967 17.3672 2.87658 17.7441 3.33301 17.7441H5.66634V17.3275C5.66634 15.6256 7.04777 14.2441 8.74967 14.2441C10.4516 14.2441 11.833 15.6256 11.833 17.3275V17.7441H14.1663C14.6228 17.7441 14.9997 17.3672 14.9997 16.9108V12.7441H17.083C17.7728 12.7441 18.333 12.1839 18.333 11.4941C18.333 10.8044 17.7728 10.2441 17.083 10.2441H14.9997V6.07747C14.9997 5.62104 14.6228 5.24414 14.1663 5.24414H9.99967V3.16081C9.99967 2.47104 9.43944 1.91081 8.74967 1.91081Z" fill="#6B767E"/>
</g>
<defs>
<clipPath id="clip0_728_23529">
<rect width="20" height="20" fill="white" transform="translate(0 0.244141)"/>
</clipPath>
</defs>
</svg>
