<svg width="24" height="25" viewBox="0 0 24 25" fill="none" xmlns="http://www.w3.org/2000/svg">
<path d="M12 2.24414C6.48 2.24414 2 6.24414 2 11.2441C2 13.2441 2.5 15.0941 3.4 16.6441L2 21.2441L6.86 19.9541C8.33 20.6441 10.1 21.0441 12 21.0441C17.52 21.0441 22 17.0441 22 12.0441C22 6.24414 17.52 2.24414 12 2.24414ZM12 19.0441C10.29 19.0441 8.71 18.6541 7.33 17.9841L7.06 17.8441L4.14 18.5441L4.86 15.7541L4.7 15.4641C3.97 14.0341 3.5 12.4241 3.5 10.7441C3.5 6.57414 7.36 3.24414 12 3.24414C16.64 3.24414 20.5 6.57414 20.5 10.7441C20.5 14.9141 16.64 19.0441 12 19.0441ZM15.5 12.7441H14.5V11.7441C14.5 10.9141 13.83 10.2441 13 10.2441H11V12.2441H12.5V14.2441H11V15.2441H13V14.2441H14.5V12.7441ZM11 8.24414H13V9.24414H11V8.24414Z" fill="#061520"/>
</svg>
