<svg width="20" height="21" viewBox="0 0 20 21" fill="none" xmlns="http://www.w3.org/2000/svg">
<path fill-rule="evenodd" clip-rule="evenodd" d="M9.99972 1.28564C8.94991 1.28564 7.94309 1.70268 7.20076 2.44501C6.45843 3.18734 6.04139 4.19416 6.04139 5.24398C6.04139 6.29379 6.45843 7.30061 7.20076 8.04294C7.94309 8.78527 8.94991 9.20231 9.99972 9.20231C11.0495 9.20231 12.0564 8.78527 12.7987 8.04294C13.541 7.30061 13.9581 6.29379 13.9581 5.24398C13.9581 4.19416 13.541 3.18734 12.7987 2.44501C12.0564 1.70268 11.0495 1.28564 9.99972 1.28564ZM7.29139 5.24398C7.29139 4.52568 7.57673 3.83681 8.08464 3.3289C8.59255 2.82099 9.28143 2.53564 9.99972 2.53564C10.718 2.53564 11.4069 2.82099 11.9148 3.3289C12.4227 3.83681 12.7081 4.52568 12.7081 5.24398C12.7081 5.96227 12.4227 6.65115 11.9148 7.15906C11.4069 7.66697 10.718 7.95231 9.99972 7.95231C9.28143 7.95231 8.59255 7.66697 8.08464 7.15906C7.57673 6.65115 7.29139 5.96227 7.29139 5.24398ZM9.99972 10.4523C8.07222 10.4523 6.29555 10.8906 4.97972 11.6306C3.68305 12.3606 2.70805 13.4656 2.70805 14.8273V14.9123C2.70722 15.8806 2.70639 17.0956 3.77222 17.964C4.29639 18.3906 5.03055 18.6948 6.02222 18.8948C7.01555 19.0965 8.31139 19.2023 9.99972 19.2023C11.6881 19.2023 12.9831 19.0965 13.9781 18.8948C14.9697 18.6948 15.7031 18.3906 16.2281 17.964C17.2939 17.0956 17.2922 15.8806 17.2914 14.9123V14.8273C17.2914 13.4656 16.3164 12.3606 15.0206 11.6306C13.7039 10.8906 11.9281 10.4523 9.99972 10.4523ZM3.95805 14.8273C3.95805 14.1181 4.47639 13.3481 5.59222 12.7206C6.68889 12.104 8.24555 11.7023 10.0006 11.7023C11.7539 11.7023 13.3106 12.104 14.4072 12.7206C15.5239 13.3481 16.0414 14.1181 16.0414 14.8273C16.0414 15.9173 16.0081 16.5306 15.4381 16.994C15.1297 17.2456 14.6131 17.4915 13.7297 17.6698C12.8489 17.8481 11.6447 17.9523 9.99972 17.9523C8.35472 17.9523 7.14972 17.8481 6.26972 17.6698C5.38639 17.4915 4.86972 17.2456 4.56139 16.9948C3.99139 16.5306 3.95805 15.9173 3.95805 14.8273Z" fill="#6B767E"/>
</svg>
