<svg width="20" height="21" viewBox="0 0 20 21" fill="none" xmlns="http://www.w3.org/2000/svg">
<path fill-rule="evenodd" clip-rule="evenodd" d="M12.0513 2.32174C12.7087 2.04937 13.4132 1.90918 14.1248 1.90918C14.8363 1.90918 15.5409 2.04937 16.1982 2.32174C16.8555 2.59406 17.4526 2.99318 17.9556 3.49631C18.4587 3.99927 18.8581 4.59669 19.1304 5.25391C19.4028 5.91126 19.543 6.61583 19.543 7.32737C19.543 8.03891 19.4028 8.74348 19.1304 9.40082C18.8581 10.0581 18.4589 10.6553 17.9557 11.1583C17.9557 11.1583 17.9557 11.1582 17.9557 11.1583L10.589 18.525C10.2636 18.8504 9.73595 18.8504 9.41052 18.525L2.04385 11.1583C1.02783 10.1423 0.457031 8.76424 0.457031 7.32737C0.457031 5.89049 1.02783 4.51247 2.04385 3.49645C3.05988 2.48042 4.4379 1.90963 5.87477 1.90963C7.31165 1.90963 8.68967 2.48042 9.7057 3.49645L9.99977 3.79052L10.2937 3.49658C10.2937 3.49663 10.2938 3.49654 10.2937 3.49658C10.7967 2.9934 11.394 2.59409 12.0513 2.32174ZM14.1248 3.57585C13.6322 3.57585 13.1444 3.6729 12.6893 3.86147C12.2342 4.05003 11.8207 4.32641 11.4725 4.67482L10.589 5.55829C10.2636 5.88373 9.73595 5.88373 9.41052 5.55829L8.52718 4.67496C7.82372 3.97149 6.86962 3.57629 5.87477 3.57629C4.87993 3.57629 3.92583 3.97149 3.22236 4.67496C2.5189 5.37842 2.1237 6.33252 2.1237 7.32737C2.1237 8.32221 2.5189 9.27632 3.22236 9.97978L9.99977 16.7572L16.7772 9.97978C17.1256 9.63154 17.4021 9.21792 17.5907 8.76284C17.7792 8.30775 17.8763 7.81997 17.8763 7.32737C17.8763 6.83476 17.7792 6.34698 17.5907 5.8919C17.4021 5.43681 17.1257 5.02334 16.7773 4.6751C16.4291 4.32669 16.0153 4.05003 15.5602 3.86147C15.1052 3.6729 14.6174 3.57585 14.1248 3.57585Z" fill="#6B767E"/>
</svg>
